<svg xmlns="http://www.w3.org/2000/svg" xmlns:xlink="http://www.w3.org/1999/xlink" stroke-miterlimit="10" stroke-linecap="square" stroke="none" fill="none" viewBox="284.0044994375703 66.96 380.1124859392576 381.23999999999995" version="1.1" style="max-height: 500px" width="380.1124859392576" height="381.23999999999995"><clipPath id="p.0"><path style="visibility: visible;" data-index="0" clip-rule="nonzero" d="m0 0l960.0 0l0 540.0l-960.0 0l0 -540.0z"/></clipPath><g clip-path="url(#p.0)"><path style="visibility: visible; opacity: 1;" data-index="1" fill-rule="evenodd" d="m0 0l960.0 0l0 540.0l-960.0 0z" fill-opacity="0.0" fill="#000000"/><path style="visibility: visible;" data-index="2" fill-rule="evenodd" d="m291.2362 181.1509l107.13779 -107.13777l151.51974 0l107.13776 107.13777l0 151.51973l-107.13776 107.13779l-151.51974 0l-107.13779 -107.13779z" fill="#bb9c46"/><path style="visibility: visible;" data-index="3" fill-rule="evenodd" d="m291.2362 181.1509l107.13779 -107.13777l151.51974 0l107.13776 107.13777l0 151.51973l-107.13776 107.13779l-151.51974 0l-107.13779 -107.13779z" stroke-linecap="butt" stroke-linejoin="round" stroke-width="8.0" stroke="#0a0a0a"/><path style="visibility: visible;" data-index="4" fill-rule="evenodd" d="m295.47244 183.40474l104.44412 -104.44411l147.7102 0l104.44409 104.44411l0 147.71019l-104.44409 104.44412l-147.7102 0l-104.44412 -104.44412z" fill="#bb9c46"/><path style="visibility: visible;" data-index="5" fill-rule="evenodd" d="m401.0748 74.362206l0 365.79526" fill-opacity="0.0" fill="#000000"/><path style="visibility: visible;" data-index="6" fill-rule="evenodd" d="m401.0748 74.362206l0 365.79526" stroke-linecap="butt" stroke-linejoin="round" stroke-width="8.0" stroke="#0a0a0a"/><path style="visibility: visible;" data-index="7" fill-rule="evenodd" d="m545.3898 74.01312l0 365.7953" fill-opacity="0.0" fill="#000000"/><path style="visibility: visible;" data-index="8" fill-rule="evenodd" d="m545.3898 74.01312l0 365.7953" stroke-linecap="butt" stroke-linejoin="round" stroke-width="8.0" stroke="#0a0a0a"/><path style="visibility: visible;" data-index="9" fill-rule="evenodd" d="m656.49475 184.75327l-365.7953 0" fill-opacity="0.0" fill="#000000"/><path style="visibility: visible;" data-index="10" fill-rule="evenodd" d="m656.49475 184.75327l-365.7953 0" stroke-linecap="butt" stroke-linejoin="round" stroke-width="8.0" stroke="#0a0a0a"/><path style="visibility: visible;" data-index="11" fill-rule="evenodd" d="m656.8438 329.06827l-365.79526 0" fill-opacity="0.0" fill="#000000"/><path style="visibility: visible;" data-index="12" fill-rule="evenodd" d="m656.8438 329.06827l-365.79526 0" stroke-linecap="butt" stroke-linejoin="round" stroke-width="8.0" stroke="#0a0a0a"/></g></svg>